<svg id="header_logo" xmlns="http://www.w3.org/2000/svg" width="446" height="120" viewBox="0 0 446 120">
  <defs>
    <style>
      .cls-1 {
        fill: #226bef;
      }

      .cls-2 {
        fill: #fff;
        opacity: 0.1;
      }
    </style>
  </defs>
  <g id="그룹_1" data-name="그룹 1" transform="translate(0)">
    <g id="그룹_70550" data-name="그룹 70550" transform="translate(0 10.139)">
      <g id="그룹_69729" data-name="그룹 69729" transform="translate(0 0)">
        <path id="패스_4074" data-name="패스 4074" class="cls-1" d="M346.188,228.48c-19.329,0-35.141,14.723-39.262,28.955-3.553,12.277-2.448,22.742,3.2,30.256,5.219,6.948,13.98,10.771,24.671,10.771,12.658,0,23.752-5.048,31.234-14.216l.144-.174-13.05-10.433-.14.173c-4.423,5.413-8.42,9.6-16.169,10.174a12.187,12.187,0,0,1-10.28-5.04,11.314,11.314,0,0,1-1.646-10.915h47.39l.683-3.864c1.885-10.7-.1-20.2-5.586-26.737C362.465,231.575,355.138,228.48,346.188,228.48Zm10.2,28.073H327.021a17.907,17.907,0,0,1,17.286-14.5,11.52,11.52,0,0,1,8.754,3.567A14.531,14.531,0,0,1,356.385,256.553Z" transform="translate(-4.864 -197.071)"/>
        <path id="패스_4075" data-name="패스 4075" class="cls-1" d="M410.253,237.429c-4.914-5.854-12.241-8.949-21.191-8.949-19.327,0-35.14,14.723-39.263,28.955-3.553,12.277-2.448,22.742,3.2,30.256,5.219,6.948,13.98,10.771,24.671,10.771,12.66,0,23.752-5.048,31.234-14.216l.143-.174L396,273.639l-.14.173c-5.174,6.339-9.1,9.653-16.17,10.174-.232.018-.466.025-.7.025a12.419,12.419,0,0,1-9.585-5.064,11.313,11.313,0,0,1-1.646-10.915h47.391l.681-3.864C417.722,253.465,415.74,243.97,410.253,237.429Zm-10.994,19.124H369.894a17.908,17.908,0,0,1,17.286-14.5,11.52,11.52,0,0,1,8.754,3.567A14.533,14.533,0,0,1,399.259,256.553Z" transform="translate(27.275 -197.071)"/>
        <path id="패스_4076" data-name="패스 4076" class="cls-1" d="M188.186,240.841l-10.345,58.676h20.435L211.327,225.5h-5.093C197.761,225.5,189.681,232.367,188.186,240.841Z" transform="translate(-99.922 -199.448)"/>
        <path id="패스_4077" data-name="패스 4077" class="cls-1" d="M158.88,240.841l-10.345,58.676h20.434L182.021,225.5h-5.093C168.454,225.5,160.375,232.367,158.88,240.841Z" transform="translate(-121.347 -199.448)"/>
        <path id="패스_4078" data-name="패스 4078" class="cls-1" d="M198.974,209.706a12.719,12.719,0,0,0-12.018,10.217c-1,5.643,2.773,10.219,8.416,10.219a12.719,12.719,0,0,0,12.018-10.219C208.386,214.282,204.617,209.706,198.974,209.706Z" transform="translate(-93.105 -209.706)"/>
        <path id="패스_4079" data-name="패스 4079" class="cls-1" d="M230.789,239.775,233.3,225.5h-4.342c-8.887,0-17.363,7.205-18.93,16.092l-10.214,57.926h20.434l5.388-30.553c1.99-11.285,9.02-15.591,19.342-17.3h0l4.269-.708,3.8-21.574S236.6,229.824,230.789,239.775Z" transform="translate(-83.502 -199.448)"/>
        <path id="패스_4080" data-name="패스 4080" class="cls-1" d="M271.307,241.59l-10.214,57.926h20.434L294.579,225.5h-4.346C281.348,225.5,272.874,232.7,271.307,241.59Z" transform="translate(-37.182 -199.448)"/>
        <path id="패스_4081" data-name="패스 4081" class="cls-1" d="M293.416,241.59,283.2,299.517h20.435L316.688,225.5h-4.344C303.457,225.5,294.983,232.7,293.416,241.59Z" transform="translate(-20.521 -199.448)"/>
        <path id="패스_4082" data-name="패스 4082" class="cls-1" d="M282.226,209.706a12.717,12.717,0,0,0-12.018,10.217c-1,5.643,2.773,10.219,8.415,10.219a12.721,12.721,0,0,0,12.02-10.219C291.638,214.282,287.869,209.706,282.226,209.706Z" transform="translate(-30.258 -209.706)"/>
        <path id="패스_4083" data-name="패스 4083" class="cls-1" d="M260.478,239.775h0l2.516-14.277h-4.342c-8.887,0-17.363,7.205-18.928,16.092l-10.215,57.926h20.436l5.386-30.553c1.992-11.285,9.02-15.591,19.344-17.3h0l4.267-.708,3.8-21.574S266.285,229.824,260.478,239.775Z" transform="translate(-61.192 -199.448)"/>
        <path id="패스_4084" data-name="패스 4084" class="cls-1" d="M213.1,254.123c3.532-13.682-7.049-25.364-23.634-26.1,0,0-12.088-.408-16.107-.708-19.689-1.476-23.483-8.483-22.6-13.31.9-4.881-19.707,15.1-3.159,29.178a10.3,10.3,0,0,1-9.549-6.042c-2.468-4.881-2.121-7.791-2.121-7.791s-7.333,11.4,3.007,16.72c7.187,3.7,74.159,8.05,74.159,8.05Z" transform="translate(-133.407 -206.874)"/>
      </g>
    </g>
    <rect id="사각형_3197" data-name="사각형 3197" class="cls-2" width="446" height="120"/>
  </g>
</svg>
