<svg xmlns="http://www.w3.org/2000/svg" xmlns:xlink="http://www.w3.org/1999/xlink" width="373" height="20" viewBox="0 0 373 20">
  <defs>
    <style>
      .cls-1, .cls-10, .cls-2, .cls-5 {
        fill: none;
      }

      .cls-1 {
        clip-rule: evenodd;
      }

      .cls-3 {
        clip-path: url(#clip-path);
      }

      .cls-4 {
        clip-path: url(#clip-path-2);
      }

      .cls-5 {
        stroke: rgba(0,0,0,0.4);
        stroke-width: 2px;
      }

      .cls-6 {
        clip-path: url(#clip-path-3);
      }

      .cls-7 {
        fill: rgba(0,0,0,0.4);
      }

      .cls-8 {
        clip-path: url(#clip-path-5);
      }

      .cls-11, .cls-9 {
        fill: #030303;
        font-size: 12px;
        font-family: Helvetica;
      }

      .cls-9 {
        letter-spacing: 0em;
      }

      .cls-10 {
        stroke: #000;
      }

      .cls-12 {
        clip-path: url(#clip-path-8);
      }

      .cls-13 {
        clip-path: url(#clip-path-10);
      }
    </style>
    <clipPath id="clip-path">
      <path id="패스_1246" data-name="패스 1246" class="cls-1" d="M346.2-15.5H363.8a3.625,3.625,0,0,1,1.926.334,2.272,2.272,0,0,1,.945.945A3.625,3.625,0,0,1,367-12.3v6.369A1.926,1.926,0,0,1,365.074-4H346.2a3.625,3.625,0,0,1-1.926-.334,2.272,2.272,0,0,1-.945-.945A3.625,3.625,0,0,1,343-7.2V-12.3a3.625,3.625,0,0,1,.334-1.926,2.272,2.272,0,0,1,.945-.945A3.625,3.625,0,0,1,346.2-15.5Z"/>
    </clipPath>
    <clipPath id="clip-path-2">
      <path id="패스_1245" data-name="패스 1245" class="cls-2" d="M2,0H375V-20H2Z"/>
    </clipPath>
    <clipPath id="clip-path-3">
      <path id="패스_1249" data-name="패스 1249" class="cls-1" d="M368-11.5a2,2,0,0,1,1.5,1.937A2,2,0,0,1,368-7.626Z"/>
    </clipPath>
    <clipPath id="clip-path-5">
      <path id="패스_1252" data-name="패스 1252" class="cls-1" d="M345.5-13.5h19a.5.5,0,0,1,.5.5v6.5a.5.5,0,0,1-.5.5h-19a.5.5,0,0,1-.5-.5V-13A.5.5,0,0,1,345.5-13.5Z"/>
    </clipPath>
    <clipPath id="clip-path-8">
      <path id="패스_1257" data-name="패스 1257" class="cls-1" d="M8-9.5a1,1,0,0,1,1,1V-6A1,1,0,0,1,8-5H7A1,1,0,0,1,6-6V-8.5a1,1,0,0,1,1-1ZM12.5-11a1,1,0,0,1,1,1v4a1,1,0,0,1-1,1h-1a1,1,0,0,1-1-1v-4a1,1,0,0,1,1-1ZM17-13a1,1,0,0,1,1,1v6a1,1,0,0,1-1,1H16a1,1,0,0,1-1-1v-6a1,1,0,0,1,1-1Zm4.5-2a1,1,0,0,1,1,1v8a1,1,0,0,1-1,1h-1a1,1,0,0,1-1-1v-8a1,1,0,0,1,1-1Z"/>
    </clipPath>
    <clipPath id="clip-path-10">
      <path id="패스_1260" data-name="패스 1260" class="cls-1" d="M71.33-12.17A10.463,10.463,0,0,1,78.5-15a10.463,10.463,0,0,1,7.17,2.83l-1.415,1.415A8.47,8.47,0,0,0,78.5-13a8.47,8.47,0,0,0-5.755,2.245L71.33-12.17Zm2.477,2.477A6.974,6.974,0,0,1,78.5-11.5a6.974,6.974,0,0,1,4.693,1.807L81.777-8.277A4.981,4.981,0,0,0,78.5-9.5a4.981,4.981,0,0,0-3.277,1.223Zm2.481,2.481A3.485,3.485,0,0,1,78.5-8a3.485,3.485,0,0,1,2.212.788L78.5-5,76.288-7.212Z"/>
    </clipPath>
  </defs>
  <g id="그룹_1113" data-name="그룹 1113" transform="translate(-2 20)">
    <g id="그룹_1099" data-name="그룹 1099" class="cls-3">
      <g id="그룹_1098" data-name="그룹 1098" class="cls-4">
        <g id="그룹_1097" data-name="그룹 1097" transform="translate(343 -15.5)">
          <path id="패스_1244" data-name="패스 1244" class="cls-5" d="M3.2,0H20.8a3.625,3.625,0,0,1,1.926.334,2.272,2.272,0,0,1,.945.945A3.625,3.625,0,0,1,24,3.2V9.574A1.926,1.926,0,0,1,22.074,11.5H3.2a3.625,3.625,0,0,1-1.926-.334,2.272,2.272,0,0,1-.945-.945A3.625,3.625,0,0,1,0,8.3V3.2A3.625,3.625,0,0,1,.334,1.279,2.272,2.272,0,0,1,1.279.334,3.625,3.625,0,0,1,3.2,0Z"/>
        </g>
      </g>
    </g>
    <g id="그룹_1101" data-name="그룹 1101" class="cls-6">
      <g id="그룹_1100" data-name="그룹 1100" class="cls-4">
        <path id="패스_1247" data-name="패스 1247" class="cls-7" d="M363-16.5h11.5V-2.626H363Z"/>
      </g>
    </g>
    <g id="그룹_1103" data-name="그룹 1103" class="cls-8">
      <g id="그룹_1102" data-name="그룹 1102" class="cls-4">
        <path id="패스_1250" data-name="패스 1250" d="M340-18.5h30V-1H340Z"/>
      </g>
    </g>
    <g id="그룹_1108" data-name="그룹 1108" class="cls-4">
      <g id="그룹_1104" data-name="그룹 1104" transform="translate(307 -16.5)">
        <text id="_100_" data-name="100%" class="cls-9" transform="translate(2.309 11)"><tspan x="0" y="0">100%</tspan></text>
      </g>
      <g id="그룹_1105" data-name="그룹 1105" transform="translate(298.5 -15)">
        <path id="패스_1253" data-name="패스 1253" class="cls-10" d="M0,2,6,7.5,3,10V0L6,2.5,0,8"/>
      </g>
      <g id="그룹_1106" data-name="그룹 1106" transform="translate(163 -16.5)">
        <text id="_9:41_AM" data-name="9:41 AM" class="cls-11" transform="translate(2.155 11)"><tspan x="0" y="0">9:41 AM</tspan></text>
      </g>
      <g id="그룹_1107" data-name="그룹 1107" transform="translate(26 -16.5)">
        <text id="Sketch" class="cls-11" transform="translate(0 11)"><tspan x="0" y="0">Sketch</tspan></text>
      </g>
    </g>
    <g id="그룹_1110" data-name="그룹 1110" class="cls-12">
      <g id="그룹_1109" data-name="그룹 1109" class="cls-4">
        <path id="패스_1255" data-name="패스 1255" d="M1-20H27.5V0H1Z"/>
      </g>
    </g>
    <g id="그룹_1112" data-name="그룹 1112" class="cls-13">
      <g id="그룹_1111" data-name="그룹 1111" class="cls-4">
        <path id="패스_1258" data-name="패스 1258" d="M66.33-20H90.67V0H66.33Z"/>
      </g>
    </g>
  </g>
</svg>
